<mxfile host="65bd71144e">
    <diagram id="S-GDTfAIzqxonj3rZFx7" name="Page-1">
        <mxGraphModel dx="893" dy="570" grid="1" gridSize="10" guides="1" tooltips="1" connect="1" arrows="1" fold="1" page="1" pageScale="1" pageWidth="850" pageHeight="1100" math="0" shadow="0">
            <root>
                <mxCell id="0"/>
                <mxCell id="1" parent="0"/>
                <mxCell id="5" value="" style="group" parent="1" vertex="1" connectable="0">
                    <mxGeometry x="60" y="110" width="320" height="573.03" as="geometry"/>
                </mxCell>
                <mxCell id="2" value="" style="rounded=0;whiteSpace=wrap;html=1;rotation=90;" parent="5" vertex="1">
                    <mxGeometry x="-86.85714285714285" y="138.23999999999998" width="493.71428571428567" height="268.8" as="geometry"/>
                </mxCell>
                <mxCell id="3" value="ECStack" style="text;strokeColor=none;fillColor=none;html=1;fontSize=24;fontStyle=1;verticalAlign=middle;align=center;" parent="5" vertex="1">
                    <mxGeometry x="68.57" y="-20" width="182.86" height="50" as="geometry"/>
                </mxCell>
                <mxCell id="16" value="" style="rounded=0;whiteSpace=wrap;html=1;fontSize=11;" parent="5" vertex="1">
                    <mxGeometry x="45" y="231.51" width="230" height="110" as="geometry"/>
                </mxCell>
                <mxCell id="17" value="&lt;span style=&quot;font-size: 12px;&quot;&gt;函数执行上下文(FEC) (foo)&lt;br&gt;Functional Execution Context&lt;br&gt;&lt;/span&gt;" style="text;strokeColor=none;fillColor=none;html=1;fontSize=24;fontStyle=1;verticalAlign=middle;align=center;" parent="5" vertex="1">
                    <mxGeometry x="108.57" y="190" width="100" height="20" as="geometry"/>
                </mxCell>
                <mxCell id="35" value="VO(variable Object) : AO&lt;br&gt;scope chain: VO + ParentScope" style="rounded=0;whiteSpace=wrap;html=1;fontSize=12;align=left;" parent="5" vertex="1">
                    <mxGeometry x="58.57" y="231.51" width="200" height="70" as="geometry"/>
                </mxCell>
                <mxCell id="38" value="&lt;div style=&quot;text-align: left;&quot;&gt;&lt;span style=&quot;font-size: 12px; background-color: initial;&quot;&gt;开始执行函数&lt;/span&gt;&lt;/div&gt;&lt;font style=&quot;font-size: 12px;&quot;&gt;&lt;div style=&quot;text-align: left;&quot;&gt;&lt;span style=&quot;background-color: initial;&quot;&gt;bar()&lt;/span&gt;&lt;/div&gt;&lt;/font&gt;" style="rounded=0;whiteSpace=wrap;html=1;fontSize=15;" parent="5" vertex="1">
                    <mxGeometry x="68.57" y="301.51" width="190" height="40" as="geometry"/>
                </mxCell>
                <mxCell id="7" value="" style="group1" parent="5" vertex="1" connectable="0">
                    <mxGeometry x="43.57" y="370" width="240" height="133.03" as="geometry"/>
                </mxCell>
                <mxCell id="6" value="&lt;font style=&quot;font-size: 9px;&quot;&gt;GEC(global exection context)&lt;/font&gt;" style="text;strokeColor=none;fillColor=none;html=1;fontSize=24;fontStyle=1;verticalAlign=middle;align=center;" parent="7" vertex="1">
                    <mxGeometry x="27.43" width="182.86" height="20.224996996784792" as="geometry"/>
                </mxCell>
                <mxCell id="20" value="VO(variable object) : GO" style="rounded=0;whiteSpace=wrap;html=1;fontSize=12;" parent="7" vertex="1">
                    <mxGeometry x="13.86" y="51.9974984983924" width="210" height="28.2012507508038" as="geometry"/>
                </mxCell>
                <mxCell id="21" value="&lt;br&gt;开始执行代码&lt;br&gt;foo()" style="rounded=0;whiteSpace=wrap;html=1;fontSize=12;align=left;" parent="7" vertex="1">
                    <mxGeometry x="15" y="90" width="210" height="40" as="geometry"/>
                </mxCell>
                <mxCell id="44" value="" style="rounded=0;whiteSpace=wrap;html=1;fontSize=11;" vertex="1" parent="5">
                    <mxGeometry x="40" y="80" width="230" height="90" as="geometry"/>
                </mxCell>
                <mxCell id="45" value="&lt;span style=&quot;font-size: 12px;&quot;&gt;函数执行上下文(FEC) (bar)&lt;br&gt;Functional Execution Context&lt;br&gt;&lt;/span&gt;" style="text;strokeColor=none;fillColor=none;html=1;fontSize=24;fontStyle=1;verticalAlign=middle;align=center;" vertex="1" parent="5">
                    <mxGeometry x="103.57" y="38.49000000000001" width="100" height="20" as="geometry"/>
                </mxCell>
                <mxCell id="46" value="VO(variable Object) : AO&lt;br&gt;scope chain: VO + ParentScope" style="rounded=0;whiteSpace=wrap;html=1;fontSize=12;align=left;" vertex="1" parent="5">
                    <mxGeometry x="53.57" y="80" width="200" height="50" as="geometry"/>
                </mxCell>
                <mxCell id="47" value="&lt;div style=&quot;text-align: left;&quot;&gt;&lt;span style=&quot;font-size: 12px; background-color: initial;&quot;&gt;开始执行函数&lt;/span&gt;&lt;/div&gt;&lt;font style=&quot;font-size: 12px;&quot;&gt;&lt;div style=&quot;text-align: left;&quot;&gt;console.log(name)&lt;/div&gt;&lt;/font&gt;" style="rounded=0;whiteSpace=wrap;html=1;fontSize=15;" vertex="1" parent="5">
                    <mxGeometry x="63.56999999999999" y="130" width="190" height="40" as="geometry"/>
                </mxCell>
                <mxCell id="18" style="edgeStyle=none;html=1;exitX=0.5;exitY=1;exitDx=0;exitDy=0;fontSize=12;" parent="1" source="10" target="12" edge="1">
                    <mxGeometry relative="1" as="geometry"/>
                </mxCell>
                <object label="name: undefined&lt;br&gt;foo:0xa00" name="undefined" placeholders="1" id="10">
                    <mxCell style="rounded=0;whiteSpace=wrap;html=1;" parent="1" vertex="1">
                        <mxGeometry x="810" y="160" width="120" height="60" as="geometry"/>
                    </mxCell>
                </object>
                <mxCell id="11" value="&lt;font style=&quot;font-size: 19px;&quot;&gt;GlobalObject&lt;/font&gt;" style="text;strokeColor=none;fillColor=none;html=1;fontSize=24;fontStyle=1;verticalAlign=middle;align=center;" parent="1" vertex="1">
                    <mxGeometry x="820" y="120" width="100" height="40" as="geometry"/>
                </mxCell>
                <mxCell id="12" value="&lt;font style=&quot;font-size: 11px;&quot;&gt;[[scope]]: parent scope&lt;br&gt;函数执行体(代码块)&lt;br&gt;&lt;/font&gt;" style="rounded=0;whiteSpace=wrap;html=1;fontSize=19;" parent="1" vertex="1">
                    <mxGeometry x="820" y="330" width="120" height="60" as="geometry"/>
                </mxCell>
                <mxCell id="13" value="&lt;font style=&quot;font-size: 12px;&quot;&gt;开辟空间 0xa00 存储函数(foo)&lt;/font&gt;" style="text;strokeColor=none;fillColor=none;html=1;fontSize=24;fontStyle=1;verticalAlign=middle;align=center;" parent="1" vertex="1">
                    <mxGeometry x="830" y="280" width="100" height="30" as="geometry"/>
                </mxCell>
                <mxCell id="19" style="edgeStyle=none;html=1;exitX=1;exitY=0.5;exitDx=0;exitDy=0;entryX=1;entryY=0;entryDx=0;entryDy=0;fontSize=12;" parent="1" source="13" target="13" edge="1">
                    <mxGeometry relative="1" as="geometry"/>
                </mxCell>
                <object label="参数:num:undefined&lt;br&gt;变量: m: undefined&lt;br&gt;n:undefined&lt;br&gt;bar: 0xb00" name="undefined" placeholders="1" id="36">
                    <mxCell style="rounded=0;whiteSpace=wrap;html=1;align=left;" parent="1" vertex="1">
                        <mxGeometry x="640" y="170" width="120" height="60" as="geometry"/>
                    </mxCell>
                </object>
                <mxCell id="37" value="&lt;font style=&quot;font-size: 15px;&quot;&gt;AO(Activation Object)&lt;/font&gt;" style="text;strokeColor=none;fillColor=none;html=1;fontSize=24;fontStyle=1;verticalAlign=middle;align=center;" parent="1" vertex="1">
                    <mxGeometry x="650" y="130" width="100" height="40" as="geometry"/>
                </mxCell>
                <mxCell id="39" value="" style="shape=image;verticalLabelPosition=bottom;labelBackgroundColor=default;verticalAlign=top;aspect=fixed;imageAspect=0;image=data:image/png,iVBORw0KGgoAAAANSUhEUgAAARYAAAEPCAYAAACHlOscAAAAAXNSR0IArs4c6QAAAARnQU1BAACxjwv8YQUAAAAJcEhZcwAADsMAAA7DAcdvqGQAAC6+SURBVHhe7d0LdFRVmi/wv93yqqqQFxUeoRISIgkQkpQikEAngKTBuTjaFzPYXloFb4Pc1hkbF2J7ZZpuHBt0aXvH7lG4y2A7XLsZ2qu2rBEmqMBgAgidEIIhECokIRJSeQD14OXVu/c5u6pOVV6VsOuR1PfrdVafs3dVJcHUl+/b55yvbsvInP4dCCFEou+J/yeEEGkosBBCpKPAQgiRjgILIUQ6CiykR8bVeXj6zWxMZftTny/E06+kwKhO9UKPea8UYsmD4rDP1Oc//XwC20/AkjcLsXy1Xp0iYU9qYInPvB+z5xXCpBMDhJCIJCmwJCNj3v0w2urgFCNkcLBaHYD9ClrYfksH22ebVZ0KMAf7esBl/jXZfrsduMK/FzIgSLmOJT6zEDpLCRqRBfPM0Wg9zPaDHWHGbELxdGDPruewQwx1HluGDYvvQ5Kyz1z4GCuObVf3Dc/h93NjcGBXFSa7HmMvx9Z9m3BIeUBP7sHKlyajprgds1aYYeBDtnJs+817sCjzTMGT2LgwWRwAjXvWYut+vqc+t6M8DlnmKPYld8OStghZUTZUFv8aO2v5Y9JQ9ItVbIzvM427sf7NT8VBiMxMwfLHRuLI6uM4KYYUD2bj6ZlX8H/WtiDzlTzEHT7OfsRsmJTJFpSIx/MS67+lXmCPq3MHqq7GyMAkJWNpqwpBIPHVXIUGpGDyGHHMzIpi9fmFKnegWXpXJqp3LcUKZfsYDWPvwwbN48Gev3DxfFzeJ+YNZizymu9JMhasiMOh59di/fO70RhlxoICMcWDx5RqNs7n2LanHqaFT8I9zZ6bNeoLZdxgXoTY0rXY2xiFVHOaMluwmgWVSyyYKM/fgsqYRVhXpM6FzGEHrkCPhJniuBume9LQ/k4JXl9diuP2BMwQ6yTWv17AZcNYZLqfr0dmqh6XLS0UVAaBQbR4ux27axxISlwmjucgNxE4USMyEmbHMU02wx5ffYH9lYyaI45VDUdX4Lcs7e5uvns8w/gdlCQEn6KmEYhNcL35P8VWbYaxv5pld3FwT/Pnloh5lunsVV9EuAfppnrsdT+/FjtLWQBKm4FUMdITw5OvIetl3+2fEH+HeEC/qeWJgmcvYoHXaGSBQ1MuNX5ais8P8z0HqiwORMeKBdjDdTjSqMeEO8XxzARMMLTgyJtU7gwGg+qs0KELp3F1bCaW8gPDHFZAnEaZ65ef46XR4h3ubeFYMe5Wh+pmscvsOLYUPztzUBzdmoLVr2DjS65tkSgN/JA2GrE8G3I/l22akqo39t+tQeWzvtv/RNsZ8YB+42sgesSxH8R450hcYYHUlb2o6yK9O3m6BdGpCcpZJuOd7D9GZa13WUUGrEEVWGA/iFq7Wg7NGjsJaDroWR/hayjTU1hG4iqFlmIPy0iCIbXoH7GAZx2uUoiXSmLOP9rnik27ftODwGUs6mLuSGMCK2GAU59eQRzLPhJYRuL3IuufL6BRKYd4GQSc+ytlK4PF4AosOIiyJgcrX5axMqgFBzplGw5cdmUwLHvpnLEEkK3dHUwKVvchY6k9AouNZSyr7xEDfRO4jMWFZS0dF3DyMAsKqWnIiGUlkt9Rk/03qgSyH8zGhI5aUTKRwUBKYNElF2L2vPsxm9XaOva/pJmhu57l0JnPYE2/D9NsnkVbhX0TDlzQY9pcUQplXMKJIGUslp1fKIu5y0UpM6u1vA8ZSy12/kZdsPWUUq+EfvGW4aeio7PY98FKGh4kTnUkwGRgJVIfAoS6iMuyHOU1yGBBbRNIaHV32poMaIOsFCIDix7zHmQZDy3aDjqUsZAQ4PcB5SGbX0nYeByvv0Rl0GBDgYUQIh2VQoQQ6SiwEEKko8BCCJGOAgshRDoKLIQQ6SiwEEKkk3S6ORqmmXOR5LqE31qBL6rqxQEhJNJIyVh0yTMwqnkfvvj8I7ZVoM2YA3NytJglhEQaKYHFWV+C8vrL4qgeVisLNlEx4pgQEmlojYUQIp38wGLMQ4bRiQYLrbEQEqnkBhZdFsyZxvBork0ICRl5gYUHlZkpgGUfTlGbdUIimpzAogkqnkVcQkikkvSBZfcjo9MH+jrREIoPLiOEhBz1YyGESEenmwkh0lFgIYRIR4GFECIdBRZCiHQUWAgh0lFgIYRIR4GFECIdBRZCiHSDM7Dkv43cjSVi+wDjJ4pxWR69gOq327FcHAaeHbt2XsCL4oiQcCfnyltjHmZnaq7pD2lryjVI33gvUFKImgNiSKb8dhx5qgMn35iI5b6vnzAG2x4aB12DBUs/vCQGVT954E4sThIHtq/xxrZmHBSHyEzFjvmaxlhdPH/5urN4dlIsXn48DtvEGCHhKgCX9Kv9b3mrypDckDjxZWQ/Fo/G9Y+jXQzJcxPb3j6OqaezMWPzEDGmmlMwBU+ltqO8YxzM8AkMPHCktYux4Xhu+RSYOzoHD5U6n275Csv3XxNjqhdfOYoftnb+2oSEmwCUQpfhdIjdUEiMh6undyc86LhLJLatWiMmVLolH2hKqBKk54sJl0dbMQupeNP3jc0ylcdjv8ZSloU0iSEvVdogcg0HLSxgxA7HHDHi7RqaOsSujxc+TgWmt1JJRMJeAAJLMoxGJ1qtwc1W3EGhkNcbSawc8g0erER6zIxrrEQqW8+3T9A+/l5kLylSp/PfRnZOO2qUObaVNCCu0Ht95sXMJthOR3UuRVqasbzL7KM/YpCZdA011d7ZiuJAFE5eaULOo+KYkDAlLbDokgsxe979bMtBvPV00NslON//kTsgAA2eALHlNWVet+QHiLOXo9G9LvIaathjdWl3swynCONzk+Cs2O0pnw48jprzBsTniMDDyqDEOB5DbrEM4dlN9nCc+1KzxsLwUmrH39/JtlRMaPgam1rEhJchaGLfYMKYm+KYkPAkLbDwTv3qx398hHLbJMyemdV9SRIql5rRU7y7Zt0p9rpyHcaRYrffYrD5oXHA8a+wrkoMCQf3f4Wl//xXZXujYxx2LB/TZal0tjUWUaOuiyNCwlNATjc7rRfh1BkwQhyHjZgxXsFOZ2QpiMZwoys74Yqg8/oEk2GwXhG7/cKCipKNWDotyvo6WN0OZ5QOKeJYa+KoDthah4kjQsJTQAJLfGoKdNYmtInjcOCsOAOnwQyTe0F2DUw5BrSXPcuymJ1or7VDl7MI7lCTvwgmQwMa33dlMbdShniCStdngrz9JI+fsm7Hv4pjD0nlGCEBJuV0M19fMadqcoFQXsfCL44rBGq6Ot2snIo2u7MWZ8VWHHcHDnUBOJsFG5Udje/8COfPikOOXxi3GHi/aCxeEEMqETjEkZsIJMqp6OzhYtDj3Gd/VUqiTvPdBSDlGprr+I9OX5+Q8EKtKfuk++tYgoGuYyEDRUBKocFrCJb/gV9L0oBtvte4BBi/8nZJXBfX0BAShiiw9NWBOMzYpcOsR4N7r9CS6Tq8T5fzkwGCSiFCiHSUsRBCpKPAQgiRjgILIUQ6CiyEEOkosBBCpKPAQgiRTnJg4d3jeOuEQpjC7tZmQkiwSA0suuQZSHJYw+rmQ0JI8MkLLLospKfy++e6bM5ICIkgkgILK4GmpQCWI0HvHEcICT9yAotxKpJQh5pQdOUnhIQdCYElGRmZejScqOyx7SMhJHLc+k2Ivh9WphXSDy4jhIRKAO5uZhnMvElwHC6h9RZCIpTU082EEMJRPxZCiHSUsRBCpKPAQgiRjgILIUQ6CiyEEOkosBBCpKPAQgiRjgILIUQ6CiyEEOkG5wVyYzaheHqKOHDgxL4V+K1dHIbQrDuKsTJdj4ajS7GhWQwGzRqkb7wXceLI9wPxb536udbGA9Ox+A9iKMD4Z1nnVN3a1+OvsYR/mv+5DExea1AHyS2TE1h0WTDPTIFXN8qQ3YC4DBsW3wcE/c07Bz+f+xSiT3X/dUMZWOJWlSAdn6Bsy2tiRC7lDYogvznz23HkqQ6cfGMilh8QY33x6AVULwbeLxqLF8QQkUNeKeSsQ/nnH+EL1xaqu5oN42FEHaqDnhH07tCZFVixKxTZShF0MUB7dWCCCn+DLpmQiPeD/Rf/Fj9He/kYJ8tUoiioBIC8jGUaUHO4/z1Zhg4dips3b+K777r+dm677TYMGTIEN27cECPdUMogYM+u57BDDKl4JjMflzVl0dK7diD/yhv42ZmD6vMSq7D1ynwlq+Cu1og5F68SyzPPX2fhWDGo4Xm+mkUlKaNdl2ber6F9DM+EVrAM7DNEz3W9Rl0XP19P1DIIJYWo6fSX3btEgr0cxzc/6/nvOPFlZD9m9mSj532znq5LoOEjdCgomIf6hnpkTJ6CYcOG4vr1G9j/2V50dLQjNjYOc/LnorKiHPX1dcpz5i9YCKfdjorj5cpzHQ47Ek0mWFusyrwxwYjjFRU49VWVcqzqfwm2fN1ZPDtqNJVAARAWi7c6nQ53TzdjWuYUJYD44mNZ06Zg+l05GDFihBj1xsuM4sU7xBs/BQv5Pt/uWqY+wB9j78PKkZ8pWcWKo3UYkb4YS8WUGlQS2BuezfF5trmCzo5j/PgNnGCBgJc5vvPAdmxQxj5GgxjR4t/7wqhybBXP21oDTJu7yfO1oWfHPCi6vk4K8u+YI+Z6wIPCxhLkisARV8j3+fa2CCRFGL/uXgyv2Iqy9YVs24pGmJG9ao0yqwQdFlSusYCkzn+C9vH3IntJkZhn8m2YOjIRFV28qb9/+/eROS0L5Ue/xEcf/F/cuH4N6emTxWzP+HNHRkfj2JdfIi4+Xgk49ZY6jBuXKB7hMgQHTsdiYmYYLKIRN3mBRZcC8zz+0R98y0O8GPaH0+nEiRNfIcrA3kA+wcUVVHjwqaqqxtWrV8WMN1eZwQOC+hddfZOuOLZdfYA/2F/rra7HN1exIJCAccofM5Y1ZKSwDKQ4AIvAy7CIr7uc2oRDYuTQmWIleEweIwaYhqOuDOYgypocGDGSrzj24uyzOO4KCOyw3R0gHleOkb8IJkMDGt2LuDtx/s/lcI6fqgQe3ZIfII79mzS6s5zXUFPSAF3a3Z4MJuU6oq4Mw1lx6KvqRKWSkVy76kR7axt0Bv+zA4vFgpssQ71+7RpqaqrFaGfbmtl3E3ejz+XQxFEdsLUOE0dEJjmBxVnptb5SbtEjo4/B5YrNhhMscGiDC9/4vo5lKSdPnlIeExoTEM3eD1abpiySyoHLofqDa2/DNbHbpUvNPZa3yjpFqNUNg23kdUwUh73hJVD1TvWM0ozNQ8QokSkgpZDTerFfay3u4BJlUAIK3/Q6FlS+qglhUOHOBfiNr1cCl4cayILCEI/hYleRGO99di9mjNexzuhejVEo2UKo9ZI1+dq2eSImF01HReZRHFl3U4wSmQIQWNSPAtFZm/r1wWVKcGFl0UgWXAwse5EbVDxvYGVdo4sF166p5UfSdO26h6+D+Jp9m0mJfVjTUWxH9QX2vIznMEuMzLpjPpJYCbI70GePDpxkJVESTO41kyKMz02Cs2K3Uio5K87AaTDDlK/O8jUXU44B7WWaxd0+Zgta37/9dozQqwvls2bNVhZn+0PJmtqHYps49tfZ1lhEjboujohMUgKLLrlQrK3wbS5GNe+7pdPNPJAcLD2M0rIjEoPKdmw4WseCg7qoyxdp97A3tL/4Gs7WmgTPojDbfu+zgLrj2MdoGHtf53m+8KuM8bM6fCGW7xfj5yLI8cXfPTYzVornrUxvwZ59njWXwHkNNes/wbWclWJRdyVMlz7xXDjH12jeKcdw96KvutDrdWbpQBROXmnCD/v4l5+fGTpV/RWyc3Kw9OFlytqL6+xP39xE/qQOnK0KVopH/EGtKcmtC+WFZvxr5w/Dy4/H9TljodPNgROQNRYSYf4wFu+fa8KSV4K8As2vvF3sxKE/9D2ocP09m0R6R4GFSPHC2mwcijuFXY+KgSB48T4LWnb183J+jgfEdgue3XkU1cEOioMclUKEEOkoYyGESDdoAkv8qFFijxASapSxEEKko8BCCJGOAgshRLpBc1aIr7G0tbaKI+KW9jDWrTBDvQSsHnuf/x32K/syaHu52NH4zo9w3t8bdvokD7/MfQKxZx/B0y1iqFcP4fUFU1G5dz2KxQgJnu+PShi3QezfsvjM+3Hn1AwkpbDNcA2NLZfFTODxtgpXnWFwp224aT+BLz4twef1Rswwj8D5T4+w8CJLGdo+/1ec/9wI/fxk3KzYgSsdYkqiFVn/hPk3/x2PWrQNnnpThavfLcWKyen4+nyZxJ+Z+ENSKRQN08z7kYGK0LemJINLwkY8kFCPDyv/JAb8t7/uCXzoyMYTKXlihASLnFLImIfZo5tCGkzCoRRKLfpHLDdHiSOgcc9abBV1R29zRXgPh0atwgKTOqadZ/UMin6xClnup3uXND29tptSEsXhUKdSyOe1G3dj/ZufigN/8ZLoB3B0KoX62PZS0YAaVyOqbkuge7DypcnoKI9DFvu57eW7YUlbxH4GGyqLf42dteJhnP4Z/DE3BiVUEgWVlIwlfrQRTls0Mtx3OLPspX93wA9Y6pu7nb3h12K92Nxv7oInvef21MO0kAWTNDHPGMyrMKt1izK/rdwGU97DSBVzqUUPI+sSe8O7nq8NDn68dk8KVrOg4n7tLaiMWYR1/j65R721vWTzD5oB13wJb9rJ12lcQYXR5yJDX4/KLtdVkpE16gvl5zWYFyG2dC32NkYh1ezzvTvKcMrBHpsgjklQSAgs0dDpAV2qAVZ3GWRFfGYhTGHQAyg47sEC9pezcU9XC6MsI8hLVv6quuf2/67zm4BlCpvFn1pLeS3sUXEQyYvKNBkFYtfDz9fu1j1IN7Hsx52h1GJnKXujps1wB7V+66XtJSbejXiDHW0VYl7pDWOAXtvSVh8DveNSNw2cWHZSIr5vWzn2dv6HF0rR6ABG66kcCiZpp5vbqko9jZ2sJ9Hg1EH08Bn80kYjlv2idzSJ4y50tGjz876x7Pw1CxbJWPDSK9jINt+Mot+vrXzfntdVtoXJYlKCntpenm1mcwbE54gmU/k84DTAqrmhsEAvJ+09a3NCH6V+vgEJDgmB5TKc7C/CCF20OI5AtRfR28mQ2ARtMEhDQozY9dP+N11l0G50sLJJG1xu7bX5eo3rtcX2m/dgEbO3pMe2l41w2Fmm62oyVZiE9hJNGcTsd/Sn8VNnE6N0cNi6+nwEEihSMpa2i1ZWCk31NM82TkWSzgqrnN+LAeBT1LDyI6vIsy7iUYtjtTZlHcBdyhTwhcZ6HPJaZfRXPTrcTfVu8bVrj8BiYxnL6nvEQDcKnlSzmd4ep9VL20ulVEK5+BQBdev0mUesDHKwcqg/bS898mBimfNFR6k4JsEg7QI53p7SnOr6e2TFqc81pVEQhMNZoYLVr7jP6nDdnxXyPnuhzPGFSNdah9cZHN8zQozPmZteX1tzxkilPavU+fXt5Vvc6z0KHlh4ieR7xij/bSXT8Ka9UM7nrJDXh53xxd2VMPk0b+MfUeIJMOpZoYzmt/DjOm1g4GeFZqOD/5yJ7HvLa8c2lmWZ2L8/XwD3+t7prFBI0JW3JDR4UMpt8z79rAQqaE43Mwkb8Zcs4MN+BoYVWe+i0OYbmEigSVu8JaQvfD9GhIubzLIf3wXflvX4sCUZD2Q9JAb8V5DyFh7QH8dbFFSCjjIWEiJdlEK+F9C50b1CAw0FFkKIdFQKEUKko8BCCJGOAgshRDoKLIQQ6SiwEEKko8BCCJFOwulm3j1uLpI6tUhwouFwCRqD1C2STjeHzpyCKXgqezjOffZXrPPqHjkczy2fAvcdBQ0WLP3wkjggg5mEjOUyGg+LPiyafiyAA9SCdrDjgeNO8Avwz4kRrZ88wIJKBwsm//xXtllwLikV2wq87ncmg5TUZtou8al3QnfxS1guXxcjgRfKZtqz7ijGr7Mm4+K5gzjf3diYTSie+1PcP6lI2cxX/ox9rs8h53PTp+Ni6xz84odP4UH+mKjh+OhCpXhAd/gNhE9i6thp+PGyIsyf9C2+vft/4L//1x/ijm9KcCzAnULnFExCdm0lnvzydhTOjAXqLmCv68rYhDH4+ewhqPqkEQcdfOAarg2PxZzU79BcYQc1MRjc5K+x6LKQZLSioT54HfpD7dCF07hqmIRczeXpySP1uNp0EIeUo2XYkFiFFbuWqtvROiRN34SlypxgMGPl3Bgc4PP7ynF17Hz83OfO365FISutHduKy2E3LVLu7lVaW07pQ4uDfjq4/yuf0kcjQQedrR0HXYEmM1UplxClQ4oYIoOX9MASn8p+bSwng9oyIeTsm3Dggh5pY+eIgWWYPLYOB84cFMfbseHYdrHPNFexv9gJGOcVOBw4se857OC79oOotesR7VdgARpLXY2Z+trj5T4kvvwasny39T/FUPGIW8Yyl21/fyd2zAd28XKIlU+J1H920JMbWJRsxYlWa+RkKy47muowInEOZvGDMZlIulClBglh6V07ULzYtd2HTo0S7adR5iqNcBC/3bcUG5rFYcB8jKZn16DSd9v4v3FDPOKWRI3DUw/p8JlYY/nXhOEsnF5Dk983EpKBSmpg4dmKzno6aGeCwgrPQkQ5tDQxBQ1NngyFr7csZBnMHlcptOvjMFljCGDG0uKEkwWR8j+xgCKG1PLIiTpxSAYveYFFZCsNlkj9oLLtqGblULSBlUFR5djtm23YL7FCRbX0ri4ylpAIYMbScgk1tuEw/5cxUAvE4Xju7hg4LZdYPkYGO0mBJRqmaRGcrQg7asphnH4fjO5FW9WhM5+xbMaMlaIUyr9SPjjOimSmYgdfP/n7VExghxPm8/07sTmTT17Dpm1foRysHFIeMwXplq+wfH+3ffvJIEL9WAgh0kk/K0QIIRRYCCHSUWAhhEhHgYUQIh0FFkKIdBRYCCHSUWAhhEhHgYUQIh0FFkKIdNKuvI3PvB8ZRnHAtFV9hFO8kVyQ0JW3ofGTB+7EYteNT7av8ca2Zs29QNSaMlJJyVh0yYXIQIVXa8r4zDzEi3kySGWmYjFcrSfFfUEPxIhJak0ZyaS0phxpmgad7RSa3a0oYzFq/FBcPteIq2Ik0CKzNSWQMSUTWdlmjE4Yg9n5BcicloUofRTOn28Ujwiglg78+ZTrpsJvgOhYzBx3U209Sa0pI5qUjKXtohW61LmiFHLd6dwUMV3kQtuaEjAmGKEzGLDjve04XlGBMYmJiI2NE7MhQq0pI5qcxVtrKSuBKtgvz/2YPW8uRjXvY+VQBPVlCXFrStuVKyj94j+V/YsXvsb/++YbjBwZrRz3TGKjJ5ahPM4/AuRL7RoLQ60pI5KcwGLMYwFlEhzKx4BU4CrLXmbPzEKnjxoaxCK7NWUMNj80Djju01ybWlNGLAmBhZU+qUY4LUdEk6d6nGLBpU2XgiTNWaJBL2JbU7Kgwhs9NVi8mzhRa8qIJidjYXRRnrMBMCYinv1aOZRFu0gRia0pPUGl02lkak0Z0SQEFv5JiCxDMeawcoivsbAtUx/Uj1cNF5HWmnJOwTilJSWSXC0qqTUlUVFrSkKIdNJKIUIIcaHAQgiRjgILIUQ6CiyEEOkosBBCpKPAQgiRjgILIUQ6CiyEEOkosBBCpAtMa0pnHcoPVyKYV/TTlbeEhA8pGYvSmlLPgoloTXnKkQJzZrKYJYREGgmBJRlJqTq0WTwZSpulDk7lDmdCSCSStMbi0yLBeRlXoYcukjo9EULcJASWelitOpa1eEqf+MwcylYIiWBSMpa2Ku9+LMaL7BgOhKhpPiEkxALTj0WXBfM0oCaIZ4borBAh4UPSGosGDyozR6P1RHBPNxNCwoeUjIWfbjanulZqrTj1eWnQP1OIMhZCwge1piSESCe/FCKERDwKLIQQ6SiwEEKko8BCCJGOAgshRDoKLIQQ6SiwEEKko8BCCJGOAotks+4oVj74Xd02YakYD7Wld/Hvpxg/N4iBgCvC+HUlSM8XhwH1EF5f8BZ+qReHCj62ESvEUf/k4Ze57+IvC97FH1PyxBjxR58CC790n9+97G5BqeGaU7e8yGybYHgOP0kHTuxbihW7+PYcdoipgGJf9/dhFMSCi7/5/wajz76LX2l7AuFP+OCsEQ/kPoMCMdJXBSmP4C4cx6t7H8GP60rFKPGHn4ElGqaZ9yMdF7u+B8iYB3OqA6dcrSmtRmTMzELE9XkyxGCE/TTK7OI4jOw4xgPdCvw2DL+3W+F687/VxRt/f90T+NCRjSf6mW1MjNLB0VyG/eKY+M+ve4V4NpLkLGEBIxkZ83KAKh48xKQSdOZiVPM+lNdfVodcdzgfLkGjn7c4Dx06FDdv3sR333X97dx2220YMmQIbty4IUa8hcO9QrwMWpl4Glv3bcIhMaYYswnFGZc048uwYfF8XN6nvtH5836CYhwY+RQWjlUegIajS7GhWd1X8NeYniIOgKs1b+BnZyaw17kPSWLMw8GyJhFEeDYz14wRyngd9nTKovj3onkNe7nP95mJ6n2XkO96Da/5nvBSaCX0ZZ8AhfciThlrQM36x9Gu7HNrkL7RNcec/wRlW15T9ye+jOzH4tG4/iSMrsewr31887Oau+Z5uTMXHWVP+GQrGvpn8MfcGJTsXc/+hftmRda7KLS9RdlKP/iVsTjreVARB53EQK9zotUqggpY8JmZwrIVHfReNW/3dDod7p5uxrTMKUoA8cXHsqZNwfS7cjBihPoWCSfq+sUOrExnP7DBjJVijeX3d8wRj+jdiPSnkH/lDaWE2lrjQFLGc5gl5tSgkqApsZayoHKQTWzHBn68rxxXlaDhmtdkJvZN+Jn7Mb7m4Odz74ORBSn1eW/gBNj3f9cyMc+lYOHcGBxQ5j9GA/v5Fo0RU36IK/wBHO8Uomx9IWrOJyF91Roxw+ZWTYWVjfO5svWfoH38vT5rMuzxG13PZ/Psa5u08wlTkeo4g33dBRXOUYZTjmRkJYhjEhQSF2/Vcmm2JqMZoYsWcz1zOp04ceIrRBn0nYKLK6jw4FNVVY2rVzu/PUJNLTPUgKD8RVfehK43v58ufOx+/KELp3GVlVVqs0/25s9IYRlKsfwyZsxiTDPU4YD7+zyI3x5lAWhspma9hmc/rixnO6ovsMo3yv+A2V7yI5w/K/arG4DxU90ZSvsWbfbyGqzngeHGInGs8jy/83yB3si+vaZeSpVSNLL/LKP1fS2H8mBifycuOihb6Q9JgUWHJFYO6S2uNZZo6Nh/lKtOVxbTuys2G06wwKENLnzj+zqWpZw8eUp5TOSZgGgDYLX1IUj1hf0S6sVuwDW1eTf/yn8buRtL3Fv6eDHu1gDrAbHLtG8pxPH3d4ojdQ3EH2dtTuijOheM3eEl0F8WPAJUPoKnW8Qg6RMJgeUSHOy3xWnZpymX1PLIq3O/H9zBJcqgBBS+6XUsqHxVE6FBhTuHy4FccHVnRgJfgBa70iXGQ2dvwzW+z9dQCpNYRuIqhXippDzKbzxg+ENZhLWxbMlPxSyg/O3edwEWYF6nEqpfJASWy2hrdkKXOgMm8QdElzwJ8c6LaPNz4VZLCS6sLBrJgouBZS+DJqhoS5u5XS24ducgypocSJrew+lk+3lYkYLJfVj7UDRXsZwgBfnutSBX2bUrAKfJizA+NwnO2i81WYudVzIqlr10zlh6tt/B/pLpE3s5ndzfkqa/JRTh/AssxjxxfYr6sR7841S117Pwxd1yC1g5pI6bx1y8pY9Y5YHkYOlhlJYdGRxBpfk57LmQgoXKou5TiD71MXtD++/QmRXYWpMgnt/VwvB2bDhax4KPa95zIZz7gj3lrI7re3AFKb74+zGs6U+J5z2FaTbPWo8McYWuUmcl4mu3ekqZs8+i8bwBpsfEfG4bO1an/NZyEhZ9Nn7UU1ahz0WGvh6VVNIEFbWmJANaQcpbeGbMGbxa9mqXi7i3csqYTjf3n8SzQoQE3/66d3EMXV8Ex4POA/quL57zR18XfYkHBRYywJXiV2X/josTH+l0r9CPJlrxYTeZjD+UoKX/G7pXqB+oFCKESEcZCyFEOgosEvBsiRDiQYGFECIdBRZCiHQUWAgh0tFZIQki9oxU2sNYt8IM9SLfeux9/ncSmyJpe7XY0fiO5y5puZbhxk//Ad8evhvDK8VQSL2Aa89k4fZX/w63i5GBqE8ZS0+tKTn1Uv9C9z1DZJCrfQ+bn1+L9cXl7K0v22uocfVpESOB8M2D/wBHx0dhElS4FzG0fBRsP/0XfCtGBiI/A0svrSl5cycWcIy2un7fH0RI0GX9G2zJdYj684tiIDx877P5iOq4G1fnaxtuDSwSWlPyTKUQOksJGtH3lpSyDPpSqOBJbFzoaXBgL9+CzTtrlf3Uon/EcnOUss817lmLraIm4XNFeA+HRq3CApM6pp1n9QyKfrEKWe6n+5Q0XuUO07gb69/8VBwIymPicKhTKeTz2l09t1e8JOJd5DqXQnGrtD1cfMolpbWl2afvsrY1ZvclUJ//zWzl2Pab92Bhu+pza9FhNsPE/y33AAv4fzfNz+7936ubEnL0v8CxbBSGDdCSyK+MpefWlEBbVfADSURRgkocKotZ2cFLD7a5ggqfW25uZ7+cYm5PPUwL2S93mjrNGcyrMKt1izK/rdwGU97DSBVzqUUPI+sS+6V3Pd/rl/werGRBpYO9qdS53Wg0LcI67Yv3oGA1e/O5X3sLKmP8f25vdEs+QHpMOY6LXi7HKwDTY2+LNZkijH/QDFRsVXu9lPB7yXng0XSsG52HmyPrcHs3JVDP/2aLgJ2ufxP2c8GMIs3PZTCnoaOYjduSsSCvHdt4qWiarLZ38Pnvta08Dgt+4Xltt4ulGHIlBd9kieMBhs4KhT321zEvmWUo78EVSzxcc7s9wWD/77C3MQqp7Jfbjf21dAUiS3kt7FFx7K+phuuX3kdq0WyY2F/jve4X/xRbWeAypM3o/Ebo5B6km9hfY3eGUoudpf4+tzdrYMoxoL3M01jb+f57aLQnwch74k68G/EGO9oqRIuGAydZQDHw1i0eo0fhxpXWTm+A5Y+vdGcTPLhsfOkV9TjKjOVsXz1ORtYKdX/jS2rm4vVYRLF5kdHw5ykZHwsy/PFK1in2XY8Xrz18uLbF1nZ8rwP4f6MGZjlEgSXsJSOW/e51tHSKKm49zfXGsvPXLBB5ftE7ZRSXLiopfp+ljUas5g2kbJpS7tZpmkT5OtuMa+ytHJ8j+uPm8z673m0uv+3maultb29VMhSldBFZhbo4zUsW7bEP8XjPc3nGwnZ5tud+vjrWmU3JRq9d8+7n/L12G27ETRBHAwsFlrBXj45eel3FJmiDQRoSYsSun/a/Kd4wrNTpYH95vYJLzGivDCM1wf1hHX7QvBldm1iLuHU+GQjLwfSehSA42Dtfl7NSbSKltMDUNu5mv/j9XhNTy0OUq2US35Rg0gdKsNH+mzz/6y6yURb84qIwtP2cOBpYKLCEvVocq2U1/sInuyhX1DmDeZFnrmARS8Hrcair39ReeQcxtWwyY4H7xe/BApa6N5b6ERxqj8DC1xhW3yMGusHXj3g209vjvKgd++NyX3YvzuqW/ABx9nI08qwkfxELM571F6WfriZbUVxsxdCRo/p9StedJaY9jCJROvWup/+Wvpbh21jg+63bxfHA4t8Fcrw1ZWbni1faxNkhftbInOp78YoTDUE8OzTYzwr5nvnp/qwQT6s9fwGVuVFfeM7GeJ3B8T0jxGjOXih8zgr1dDZKpT3L0fn1tc9XuM52+X5d3sGfZRrevM/8eJ8V0p7xUT8szeTOYFS8cbcnwKhnhW6e/V/Qf+b95u3538z3565HZXkcssTjPc+tV3722NK12NrU0/MZzVkltwF+VoiuvJUglF+bdIEHpdw2709NVAIVvD+JMevf0MHGosLwzfvNg1/ienvnoDdQUClEBh2dsfM6UNxklv24PnrEpfLvEFWfAtuDL4iB8PDt/M9gi/0SIwZoUOEoY5GAMpZw00Up1Olzn13oXqFAoMAiAQUWQrxRKUQIkY4CiwSUrRDijQILIUQ6CiyEEOkosBBCpKPAIgn/nF/+iXl/yXpIjBASufp0utl16b7rUn4P3mFuLpJcV/VbK/BFVb04CI7wOOWbh1/mPoHYs4/g6RYxREgE8jNj6bk1pS55BkY178MXn3/Etgq0GXNgTo4Ws5GkFPuanRitp8/5JZHNr8DCA4fe8hHK6y+LEW+8w5xnrh5WfmNiVB/v3SeEDBp+BZbeWlMSQoiW/MVbYx4yjE40WIK7xhIu9jus0I/J9aPfBiGDl9zAosuCOdMY2c21W9bjb8/G4JkF7+KPKbTWQiKTvMDCg8rMFMCyL6LLpoKUt/CXMSfxt3sfwY/rSsUoIZFFTmDRBJXuFngjicPGP26CkMglpTUl/2jVzh+7GjmtKbV4xvIE3qVshUQ06sciGQUWQgJxViii5WHuGB0uOiiokMhGgUUS9V6hJ3AXjuMDupyfRDgqhQgh0lHGQgiRjgILIUQ6CiyEEOkosBBCpKPAQgiRjgKLFGuQvvEDjJ8oDgMpYSP+kvuM193T/KI8uuGRhJM+BRbemnL2vC4u3+eX/LNx95aZLCaIVPpn8McsI45Vvor9YojbX7cPFyc+gdcTxAAhIeZnYOm5NSWspaItJd/2oUEfqa0pAykPv8zKBs6+i185xJDbn/B02XGMztqIFWKEkFDyK7D01prS22U4O/3iR4jEl5G9sQS5fFv3Mly9xRX5b6vjYkvPF+Mcn+OPn6h5/qo1YlJIuFe5qvet7u5BcryKkpZkFFJJRMKAX4Glb60pk2E0OtFqjbT2CQaYCuPRuL4QZeu3ohFm3LGkSMytQfrkk2ycz7GtpAFxhW8jTswqDGZkPyae/045nON/4LVms2JMMhzNZV4lkK/i5nrqXkfCgrTFW9f6y+x5OYi3no7ADnJ2NL7zONqV/Z1or7VDl3a3yFpeQ82W15Q9xYGT7HFxLEMRxwrN889+iTa7AfpEZYLJg0mP3m9udFyCQx+DYKwhE9ITaYGFZzWudZZy2yTMnpnlXQpEGKdVDTEucas8ZVDuxnu9sxXOfgbtZ8U+C0znNxei5oA4RBJiWWDplaMJF2FUghAhoSQtsGg5rRfh1BkwQhxHIp2RhY5LzeCJm27JB0gf34AaVym0/hOR2firAR3+rFuxFGc0rGiM1DUuEjYCEljiU1OgszZ1fQYpIqyBKceA9mpN+WNvwzWxG7eqi4ylR6VKsOj1g9BYGaRn5ZA78SEkRPwLLO7rVHIQzw55K0p+7LqexbO+IsYR/I9YDT0DTI95Sh2UeEoZ5/v/iXa+OCtKIVNreR8zFrEwO/HeHk8n+7PAS0gwUD+WAUP9XOiM5re6bnvJL57LjUHJ3vUoFkOEhEpASiESCKX4VeVxYOIj+GWnxdmH8HpuNi5WUlAh4YECy0DieBU/rrTirizfe4XmYvTZt/A0tcQkYYJKIUKIdJSxEEKkGzSBhbIVQsIHZSyEEOkosBBCpKPAQgiRblAFluXrzqJ651FUv92O5WKMEBJ8fTrdzC/dN6fq0Fb1UTf9WXinublI0jnRcLgkZK0TXnzlKH7Ymo0Zm4eIEUJIMPmZsfTSmlLgneaSHNaQ33z4QlUiokZdF0eEkGDzK7D41ZpSl4X0VKDB0iQGCCGRyq/A0ntrSpbRTEsBLEcisHMcIcSXnMVb41QkoQ41fjXbDoK6YbBNsOFFcUgICS4JgSUZGZl6NJyoVLqlhYUDcZjxxjD8kJ8hesUuBgkhwdLHmxBZEJmXA2jPCvEmUJm+n2AmWEPU8OnRC6jOH4aXH4/DNjFECAmeWw8snfDHTIIjhKeblcCSGYXJaw1igBASTP6VQr20piSEEK1B04/FC2UshISUnLNCYebFzCbYWoeJI0JIsA2qwOK6V2jJhET8B13OT0jIDM5SiBASUoOyFCKEhNagyVhuHzJc7BFCQo0yFkKIdBRYCCHSUWAhhEgG/H+deLkamubf7AAAAABJRU5ErkJggg==;" vertex="1" parent="1">
                    <mxGeometry x="400" y="430" width="184.65" height="180" as="geometry"/>
                </mxCell>
                <mxCell id="40" value="&lt;font style=&quot;font-size: 11px;&quot;&gt;[[scope]]: parent scope&lt;br&gt;函数执行体(代码块)&lt;br&gt;&lt;/font&gt;" style="rounded=0;whiteSpace=wrap;html=1;fontSize=19;" vertex="1" parent="1">
                    <mxGeometry x="640" y="330" width="120" height="60" as="geometry"/>
                </mxCell>
                <mxCell id="41" value="&lt;font style=&quot;font-size: 12px;&quot;&gt;开辟空间 0xb00 存储函数(bar)&lt;/font&gt;" style="text;strokeColor=none;fillColor=none;html=1;fontSize=24;fontStyle=1;verticalAlign=middle;align=center;" vertex="1" parent="1">
                    <mxGeometry x="650" y="280" width="100" height="30" as="geometry"/>
                </mxCell>
                <mxCell id="42" style="edgeStyle=none;html=1;exitX=1;exitY=0.5;exitDx=0;exitDy=0;entryX=1;entryY=0;entryDx=0;entryDy=0;fontSize=12;" edge="1" parent="1" source="41" target="41">
                    <mxGeometry relative="1" as="geometry"/>
                </mxCell>
                <mxCell id="43" style="edgeStyle=none;html=1;exitX=0.5;exitY=1;exitDx=0;exitDy=0;fontSize=12;" edge="1" parent="1">
                    <mxGeometry relative="1" as="geometry">
                        <mxPoint x="696.0699999999999" y="220" as="sourcePoint"/>
                        <mxPoint x="703.9271428571428" y="330" as="targetPoint"/>
                    </mxGeometry>
                </mxCell>
                <object label="{&lt;br&gt;}" name="undefined" placeholders="1" id="48">
                    <mxCell style="rounded=0;whiteSpace=wrap;html=1;align=left;" vertex="1" parent="1">
                        <mxGeometry x="432.33" y="170" width="120" height="40" as="geometry"/>
                    </mxCell>
                </object>
                <mxCell id="49" value="&lt;font style=&quot;font-size: 15px;&quot;&gt;AO(Activation Object)(bar)&lt;/font&gt;" style="text;strokeColor=none;fillColor=none;html=1;fontSize=24;fontStyle=1;verticalAlign=middle;align=center;" vertex="1" parent="1">
                    <mxGeometry x="442.33000000000004" y="130" width="100" height="40" as="geometry"/>
                </mxCell>
                <mxCell id="50" value="&lt;u&gt;&lt;font style=&quot;font-size: 20px;&quot;&gt;当我们查找一个变量时, 真实的查找路径是沿着作用域链来查找的&lt;/font&gt;&lt;/u&gt;" style="text;strokeColor=none;fillColor=none;html=1;fontSize=24;fontStyle=1;verticalAlign=middle;align=center;" vertex="1" parent="1">
                    <mxGeometry x="570" y="50" width="100" height="40" as="geometry"/>
                </mxCell>
            </root>
        </mxGraphModel>
    </diagram>
</mxfile>